<svg xmlns="http://www.w3.org/2000/svg" xmlns:xlink="http://www.w3.org/1999/xlink" version="1.1" id="Layer_1" x="0px" y="0px" style="enable-background:new 0 0 595.28 841.89;" xml:space="preserve" viewBox="113.43 231.97 293.89 417.55">
<style type="text/css">
	.st0{stroke:#000000;stroke-miterlimit:10;}
</style>
<polygon class="st0" points="406.82,581.93 406.82,581.93 390.97,581.93 360.63,473.5 358.5,465.87 356.36,458.24 354.23,450.61   309.04,289.09 305.08,303.24 263.85,450.61 248.01,450.61 297.16,274.93 301.12,260.78 305.08,246.63 309.04,232.47 316.96,260.78   370.08,450.61 372.21,458.24 374.35,465.87 376.48,473.5 "/>
<path class="st0" d="M352.72,473.5h-95.27L226.1,585.52c-0.04,0.18-0.08,0.35-0.14,0.52c-9.99,36.31-43.25,62.98-82.74,62.98  c-10.29,0-20.15-1.81-29.29-5.13c4.75,0.82,9.62,1.24,14.6,1.24c39.56,0,72.87-26.76,82.79-63.18c0.24-0.85,0.46-1.71,0.66-2.57  l12.37-44.21l17.26-61.67l2.13-7.63l2.14-7.63h102.57l2.13,7.63L352.72,473.5z"/>
</svg>