<?xml version="1.0" standalone="no"?>
<!DOCTYPE svg PUBLIC "-//W3C//DTD SVG 20010904//EN"
 "http://www.w3.org/TR/2001/REC-SVG-20010904/DTD/svg10.dtd">
<svg version="1.0" xmlns="http://www.w3.org/2000/svg"
 width="1280.000000pt" height="1016.000000pt" viewBox="0 0 1280.000000 1016.000000"
 preserveAspectRatio="xMidYMid meet">
<metadata>
Created by potrace 1.16, written by Peter Selinger 2001-2019
</metadata>
<g transform="translate(0.000000,1016.000000) scale(0.100000,-0.100000)"
fill="#000000" stroke="none">
<path d="M5977 10133 c-11 -18 -1389 -4764 -1385 -4769 3 -2 302 39 664 91
362 53 680 99 705 102 74 9 72 6 63 134 l-9 114 -465 5 -466 5 351 1257 c192
691 353 1254 356 1250 4 -4 72 -252 152 -552 81 -300 340 -1267 578 -2150 237
-883 451 -1681 474 -1775 73 -288 95 -504 95 -935 -1 -1045 -193 -1709 -705
-2430 -45 -63 -88 -133 -95 -154 -27 -83 10 -215 77 -278 l25 -23 216 220
c304 308 479 517 649 777 237 361 395 769 498 1283 65 322 79 464 79 800 1
434 -36 690 -162 1140 -230 819 -1676 5882 -1682 5888 -4 5 -10 5 -13 0z"/>
</g>
</svg>
