<?xml version="1.0" standalone="no"?>
<!DOCTYPE svg PUBLIC "-//W3C//DTD SVG 20010904//EN"
 "http://www.w3.org/TR/2001/REC-SVG-20010904/DTD/svg10.dtd">
<svg version="1.0" xmlns="http://www.w3.org/2000/svg"
 width="1281.000000pt" height="913.000000pt" viewBox="0 0 1281.000000 913.000000"
 preserveAspectRatio="xMidYMid meet">
<metadata>
Created by potrace 1.16, written by Peter Selinger 2001-2019
</metadata>
<g transform="translate(0.000000,913.000000) scale(0.100000,-0.100000)"
fill="#000000" stroke="none">
<path d="M6636 9093 c-3 -10 -240 -857 -527 -1883 -286 -1026 -583 -2085 -658
-2355 l-138 -490 190 -3 c105 -1 191 -1 193 0 1 2 215 765 476 1696 260 930
475 1692 478 1692 3 0 397 -1400 875 -3110 l870 -3110 193 0 c180 0 193 1 188
18 -6 19 25 -92 -1216 4342 -1028 3675 -899 3220 -910 3220 -5 0 -11 -8 -14
-17z"/>
<path d="M5270 4214 c0 -16 -736 -2638 -771 -2746 -217 -672 -820 -1167 -1521
-1248 -102 -12 -389 -8 -496 6 -34 5 -42 3 -42 -10 0 -30 259 -95 459 -116
839 -84 1634 406 1931 1190 17 47 188 643 379 1325 l347 1240 1027 3 c811 2
1027 5 1027 15 0 6 -21 87 -47 180 l-46 167 -1124 0 c-617 0 -1123 -3 -1123
-6z"/>
</g>
</svg>
